<svg width="600" height="400" viewBox="0 0 600 400" fill="none" xmlns="http://www.w3.org/2000/svg">
  <rect width="600" height="400" rx="12" fill="#F1F5FF"/>
  <rect x="50" y="150" width="200" height="150" rx="4" fill="#E2EAFF"/>
  <rect x="280" y="150" width="200" height="150" rx="4" fill="#E2EAFF"/>
  <rect x="100" y="100" width="400" height="30" rx="4" fill="#B4C6FF"/>
  <circle cx="300" cy="75" r="50" fill="#3B82F6"/>
  <path d="M300 40V110M270 75H330" stroke="white" stroke-width="10" stroke-linecap="round"/>
  <rect x="140" y="170" width="120" height="10" rx="2" fill="#B4C6FF"/>
  <rect x="140" y="190" width="80" height="10" rx="2" fill="#B4C6FF"/>
  <rect x="140" y="210" width="100" height="10" rx="2" fill="#B4C6FF"/>
  <rect x="140" y="230" width="60" height="10" rx="2" fill="#B4C6FF"/>
  <rect x="140" y="250" width="90" height="10" rx="2" fill="#B4C6FF"/>
  <rect x="320" y="170" width="120" height="10" rx="2" fill="#B4C6FF"/>
  <rect x="320" y="190" width="80" height="10" rx="2" fill="#B4C6FF"/>
  <rect x="320" y="210" width="100" height="10" rx="2" fill="#B4C6FF"/>
  <rect x="320" y="230" width="60" height="10" rx="2" fill="#B4C6FF"/>
  <rect x="320" y="250" width="90" height="10" rx="2" fill="#B4C6FF"/>
  <rect x="100" y="330" width="400" height="30" rx="4" fill="#B4C6FF"/>
  <text x="300" y="350" font-family="Arial" font-size="16" fill="#1E40AF" text-anchor="middle">Indian Tax Planning</text>
</svg> 